<svg width="24" height="24" viewBox="0 0 24 24" fill="none" xmlns="http://www.w3.org/2000/svg">
<path d="M22.908 22.7761L17.3915 16.9437C18.8713 15.145 19.7672 12.7982 19.7672 10.2333C19.7672 4.58714 15.4235 0 10.0882 0C4.74787 0 0.40918 4.59246 0.40918 10.2333C0.40918 15.8741 4.7529 20.4665 10.0882 20.4665C12.5142 20.4665 14.7339 19.5193 16.4352 17.9548L21.9516 23.7871C22.0825 23.9255 22.2587 24 22.4298 24C22.6009 24 22.7771 23.9308 22.908 23.7871C23.1697 23.5104 23.1697 23.0528 22.908 22.7761ZM1.76313 10.2333C1.76313 5.38004 5.49783 1.43681 10.0831 1.43681C14.6735 1.43681 18.4032 5.38537 18.4032 10.2333C18.4032 15.0812 14.6735 19.035 10.0831 19.035C5.49783 19.035 1.76313 15.0865 1.76313 10.2333Z" fill="#A4A4A4"/>
</svg>
