<svg width="60" height="38" viewBox="0 0 60 38" fill="none" xmlns="http://www.w3.org/2000/svg">
<path d="M38.122 33.1083H21.9043V3.96289H38.1223L38.122 33.1083Z" fill="#FF5F00"/>
<path d="M22.932 18.5359C22.932 12.6237 25.7002 7.35714 30.0108 3.96314C26.7479 1.39027 22.7122 -0.00611955 18.5569 2.01603e-05C8.32089 2.01603e-05 0.0234375 8.29867 0.0234375 18.5359C0.0234375 28.773 8.32089 37.0717 18.5569 37.0717C22.7123 37.0779 26.7481 35.6815 30.0111 33.1086C25.7008 29.7152 22.932 24.4483 22.932 18.5359Z" fill="#EB001B"/>
<path d="M60.0009 18.5359C60.0009 28.773 51.7035 37.0717 41.4675 37.0717C37.3117 37.0778 33.2754 35.6814 30.0117 33.1086C34.3236 29.7146 37.0918 24.4483 37.0918 18.5359C37.0918 12.6234 34.3236 7.35714 30.0117 3.96314C33.2753 1.39034 37.3115 -0.00601193 41.4672 1.94571e-05C51.7032 1.94571e-05 60.0006 8.29867 60.0006 18.5359" fill="#F79E1B"/>
</svg>
