<svg width="80" height="80" viewBox="0 0 80 80" fill="none" xmlns="http://www.w3.org/2000/svg">
<circle cx="40" cy="40" r="40" fill="#009444" fill-opacity="0.1"/>
<path d="M36.3142 16.56C36.7828 16.0452 37.3537 15.634 37.9904 15.3525C38.6272 15.0711 39.3156 14.9258 40.0117 14.9258C40.7078 14.9258 41.3963 15.0711 42.033 15.3525C42.6697 15.634 43.2406 16.0452 43.7092 16.56L46.2592 19.36C46.7543 19.9035 47.3632 20.3312 48.0425 20.6125C48.7218 20.8938 49.4548 21.0219 50.1892 20.9875L53.9717 20.8125C54.6668 20.7797 55.3611 20.8924 56.0101 21.1434C56.6591 21.3943 57.2486 21.7779 57.7409 22.2697C58.2331 22.7615 58.6174 23.3507 58.8689 23.9995C59.1205 24.6482 59.2338 25.3424 59.2017 26.0375L59.0242 29.8225C58.9899 30.5569 59.1179 31.2899 59.3992 31.9692C59.6805 32.6485 60.1082 33.2574 60.6517 33.7525L63.4517 36.3025C63.9665 36.7711 64.3778 37.342 64.6592 37.9787C64.9406 38.6154 65.0859 39.3039 65.0859 40C65.0859 40.6961 64.9406 41.3846 64.6592 42.0213C64.3778 42.658 63.9665 43.2289 63.4517 43.6975L60.6517 46.2475C60.1082 46.7426 59.6805 47.3515 59.3992 48.0308C59.1179 48.7101 58.9899 49.4431 59.0242 50.1775L59.1992 53.96C59.232 54.6551 59.1193 55.3493 58.8683 55.9984C58.6174 56.6474 58.2338 57.2369 57.742 57.7292C57.2502 58.2214 56.661 58.6056 56.0123 58.8572C55.3635 59.1087 54.6693 59.2221 53.9742 59.19L50.1892 59.0125C49.4548 58.9781 48.7218 59.1062 48.0425 59.3875C47.3632 59.6688 46.7543 60.0965 46.2592 60.64L43.7092 63.44C43.2406 63.9548 42.6697 64.366 42.033 64.6475C41.3963 64.9289 40.7078 65.0742 40.0117 65.0742C39.3156 65.0742 38.6272 64.9289 37.9904 64.6475C37.3537 64.366 36.7828 63.9548 36.3142 63.44L33.7642 60.64C33.2691 60.0965 32.6602 59.6688 31.9809 59.3875C31.3016 59.1062 30.5687 58.9781 29.8342 59.0125L26.0517 59.1875C25.3566 59.2202 24.6624 59.1076 24.0134 58.8566C23.3643 58.6057 22.7748 58.2221 22.2826 57.7303C21.7903 57.2385 21.4061 56.6493 21.1545 56.0005C20.903 55.3518 20.7896 54.6576 20.8217 53.9625L20.9992 50.1775C21.0336 49.4431 20.9055 48.7101 20.6242 48.0308C20.3429 47.3515 19.9153 46.7426 19.3717 46.2475L16.5717 43.6975C16.0569 43.2289 15.6457 42.658 15.3643 42.0213C15.0829 41.3846 14.9375 40.6961 14.9375 40C14.9375 39.3039 15.0829 38.6154 15.3643 37.9787C15.6457 37.342 16.0569 36.7711 16.5717 36.3025L19.3717 33.7525C19.9153 33.2574 20.3429 32.6485 20.6242 31.9692C20.9055 31.2899 21.0336 30.5569 20.9992 29.8225L20.8242 26.04C20.7915 25.3449 20.9042 24.6507 21.1551 24.0016C21.406 23.3526 21.7897 22.7631 22.2815 22.2708C22.7733 21.7786 23.3624 21.3944 24.0112 21.1428C24.66 20.8913 25.3541 20.7779 26.0492 20.81L29.8342 20.9875C30.5687 21.0219 31.3016 20.8938 31.9809 20.6125C32.6602 20.3312 33.2691 19.9035 33.7642 19.36L36.3142 16.56Z" stroke="#228B22" stroke-width="2.75248"/>
<path d="M32.5 40L37.5 45L47.5 35" stroke="#228B22" stroke-width="2.75248" stroke-linecap="round" stroke-linejoin="round"/>
</svg>
