<svg width="40" height="40" viewBox="0 0 40 40" fill="none" xmlns="http://www.w3.org/2000/svg">
<rect width="40" height="40" rx="20" fill="#2CB42C" fill-opacity="0.1"/>
<path d="M12.5088 19.3496V23.0913C12.5088 26.8329 14.0088 28.3329 17.7505 28.3329H22.2421C25.9838 28.3329 27.4838 26.8329 27.4838 23.0913V19.3496" stroke="#228B22" stroke-width="1.5" stroke-linecap="round" stroke-linejoin="round"/>
<path d="M19.9997 19.9993C21.5247 19.9993 22.6497 18.7577 22.4997 17.2327L21.9497 11.666H18.0581L17.4997 17.2327C17.3497 18.7577 18.4747 19.9993 19.9997 19.9993Z" stroke="#228B22" stroke-width="1.5" stroke-linecap="round" stroke-linejoin="round"/>
<path d="M25.2587 19.9993C26.942 19.9993 28.1753 18.6327 28.0087 16.9577L27.7753 14.666C27.4753 12.4993 26.642 11.666 24.4587 11.666H21.917L22.5003 17.5077C22.642 18.8827 23.8837 19.9993 25.2587 19.9993Z" stroke="#228B22" stroke-width="1.5" stroke-linecap="round" stroke-linejoin="round"/>
<path d="M14.6997 19.9993C16.0747 19.9993 17.3163 18.8827 17.4497 17.5077L17.633 15.666L18.033 11.666H15.4913C13.308 11.666 12.4747 12.4993 12.1747 14.666L11.9497 16.9577C11.783 18.6327 13.0163 19.9993 14.6997 19.9993Z" stroke="#228B22" stroke-width="1.5" stroke-linecap="round" stroke-linejoin="round"/>
<path d="M20.0003 24.166C18.6087 24.166 17.917 24.8577 17.917 26.2493V28.3327H22.0837V26.2493C22.0837 24.8577 21.392 24.166 20.0003 24.166Z" stroke="#228B22" stroke-width="1.5" stroke-linecap="round" stroke-linejoin="round"/>
</svg>
