<svg width="25" height="24" viewBox="0 0 25 24" fill="none" xmlns="http://www.w3.org/2000/svg">
<path d="M16.94 11H19.64C21.89 11 22.79 10.1 22.79 7.85001V5.14999C22.79 2.89999 21.89 2 19.64 2H16.94C14.69 2 13.79 2.89999 13.79 5.14999V7.85001M16.94 11C14.69 11 13.79 10.1 13.79 7.85001M16.94 11H18.17V13.62C18.17 16.31 17.1 17.38 14.41 17.38H11.79V16.15M13.79 7.85001V6.62H11.17C8.48004 6.62 7.41004 7.69 7.41004 10.38V13H8.64004M11.79 16.15V18.85C11.79 21.1 10.89 22 8.64004 22H5.94004C3.69004 22 2.79004 21.1 2.79004 18.85V16.15C2.79004 13.9 3.69004 13 5.94004 13H8.64004M11.79 16.15C11.79 13.9 10.89 13 8.64004 13" stroke="#868686" stroke-width="1.5" stroke-linecap="round" stroke-linejoin="round"/>
</svg>
