<svg width="32" height="32" viewBox="0 0 32 32" fill="none" xmlns="http://www.w3.org/2000/svg">
<path fill-rule="evenodd" clip-rule="evenodd" d="M8.29395 9.61993C8.29395 9.10999 8.29395 8.85501 8.39319 8.66024C8.48048 8.48892 8.61977 8.34962 8.7911 8.26233C8.98587 8.16309 9.24084 8.16309 9.75079 8.16309H21.4055C21.9155 8.16309 22.1704 8.16309 22.3652 8.26233C22.5365 8.34962 22.6758 8.48892 22.7631 8.66024C22.8624 8.85501 22.8624 9.10999 22.8624 9.61993V23.0957C22.8624 23.6057 22.8624 23.8606 22.7631 24.0554C22.7195 24.1411 22.6628 24.2187 22.5957 24.2859L21.0413 22.7315L19.6756 24.0973L18.3098 22.7315L16.944 24.0973L15.5782 22.7315L14.2124 24.0973L12.8466 22.7315L11.4808 24.0973L10.115 22.7315L8.56065 24.2859C8.49349 24.2187 8.43684 24.1411 8.39319 24.0554C8.29395 23.8606 8.29395 23.6057 8.29395 23.0957V9.61993ZM10.1647 10.2327C10.115 10.3301 10.115 10.4576 10.115 10.7126V11.0768C10.115 11.3317 10.115 11.4592 10.1647 11.5566C10.2083 11.6423 10.2779 11.7119 10.3636 11.7556C10.461 11.8052 10.5885 11.8052 10.8435 11.8052H20.3129C20.5679 11.8052 20.6954 11.8052 20.7928 11.7556C20.8784 11.7119 20.9481 11.6423 20.9917 11.5566C21.0413 11.4592 21.0413 11.3317 21.0413 11.0768V10.7126C21.0413 10.4576 21.0413 10.3301 20.9917 10.2327C20.9481 10.1471 20.8784 10.0774 20.7928 10.0338C20.6954 9.98414 20.5679 9.98414 20.3129 9.98414H10.8435C10.5885 9.98414 10.461 9.98414 10.3636 10.0338C10.2779 10.0774 10.2083 10.1471 10.1647 10.2327Z" fill="#868686"/>
</svg>
