<svg width="149" height="145" viewBox="0 0 149 145" fill="none" xmlns="http://www.w3.org/2000/svg">
<circle cx="71.103" cy="71.103" r="71.103" fill="#2CB42C" fill-opacity="0.1"/>
<path d="M82.1085 56L149 74.0352L142.024 145L62 125.789L82.1085 56Z" fill="#228B22" fill-opacity="0.2"/>
<path d="M148.431 72.7398L78.4668 54.7373C75.0573 59.6471 66.2743 72.3306 58.4187 83.7867C50.5631 95.2428 36.8703 109.29 31.0059 114.882L112.835 139.021C114.335 138.203 120.691 132.23 134.111 114.882C147.531 97.534 149.249 79.5589 148.431 72.7398Z" fill="#5EB14E" fill-opacity="0.8" stroke="#E5FFF1" stroke-opacity="0.1" stroke-width="0.818293"/>
<circle cx="84.6052" cy="73.9665" r="3.27317" fill="#E8FFF2"/>
<circle cx="74.7849" cy="91.1511" r="3.27317" fill="#E8FFF2"/>
<circle cx="64.9665" cy="106.699" r="3.27317" fill="#E8FFF2"/>
<rect x="83.1484" y="93.9756" width="39.2781" height="1.63659" rx="0.818293" transform="rotate(15.5 83.1484 93.9756)" fill="#E8FFF2"/>
<rect x="74.582" y="110.559" width="35.5522" height="1.63659" rx="0.818293" transform="rotate(15.5 74.582 110.559)" fill="#E8FFF2"/>
<rect x="93.9316" y="76.459" width="39.2781" height="1.63659" rx="0.818293" transform="rotate(14.5 93.9316 76.459)" fill="#E8FFF2"/>
</svg>
