<svg width="140" height="140" viewBox="0 0 140 140" fill="none" xmlns="http://www.w3.org/2000/svg">
<circle cx="70" cy="70" r="70" fill="#009444" fill-opacity="0.1"/>
<g clip-path="url(#clip0_102_2125)">
<path d="M69.3135 32.875C62.1068 32.875 55.062 35.012 49.0699 39.0158C43.0778 43.0196 38.4075 48.7104 35.6496 55.3685C32.8918 62.0265 32.1702 69.3529 33.5761 76.4211C34.9821 83.4893 38.4524 89.9818 43.5483 95.0777C48.6442 100.174 55.1367 103.644 62.2049 105.05C69.2731 106.456 76.5994 105.734 83.2575 102.976C89.9156 100.218 95.6063 95.5482 99.6101 89.5561C103.614 83.5639 105.751 76.5191 105.751 69.3125C105.751 64.5274 104.808 59.7893 102.977 55.3685C101.146 50.9477 98.4622 46.9308 95.0787 43.5473C91.6951 40.1638 87.6783 37.4798 83.2575 35.6486C78.8367 33.8175 74.0985 32.875 69.3135 32.875ZM69.3135 98.4625C63.5482 98.4625 57.9123 96.7528 53.1186 93.5498C48.3249 90.3468 44.5887 85.7942 42.3824 80.4677C40.1761 75.1412 39.5988 69.2801 40.7236 63.6256C41.8484 57.9711 44.6246 52.777 48.7013 48.7003C52.778 44.6236 57.9721 41.8474 63.6266 40.7226C69.2811 39.5978 75.1422 40.1751 80.4687 42.3814C85.7952 44.5877 90.3478 48.3239 93.5508 53.1176C96.7538 57.9113 98.4635 63.5472 98.4635 69.3125C98.4635 77.0435 95.3923 84.458 89.9256 89.9246C84.459 95.3913 77.0445 98.4625 69.3135 98.4625Z" fill="#5EB14E"/>
<path d="M84.2093 66.7917H73.2093V55.7917C73.2093 54.8192 72.823 53.8866 72.1354 53.1989C71.4477 52.5113 70.5151 52.125 69.5426 52.125C68.5702 52.125 67.6376 52.5113 66.9499 53.1989C66.2623 53.8866 65.876 54.8192 65.876 55.7917V70.4583C65.876 71.4308 66.2623 72.3634 66.9499 73.0511C67.6376 73.7387 68.5702 74.125 69.5426 74.125H84.2093C85.1818 74.125 86.1144 73.7387 86.802 73.0511C87.4897 72.3634 87.876 71.4308 87.876 70.4583C87.876 69.4859 87.4897 68.5532 86.802 67.8656C86.1144 67.178 85.1818 66.7917 84.2093 66.7917Z" fill="#5EB14E"/>
</g>
<defs>
<clipPath id="clip0_102_2125">
<rect width="88" height="88" fill="white" transform="translate(26 26)"/>
</clipPath>
</defs>
</svg>
